<?xml version="1.0" encoding="UTF-8"?>
<svg id="Layer_1" xmlns="http://www.w3.org/2000/svg" version="1.1" viewBox="0 0 128 128">
  <!-- Generator: Adobe Illustrator 29.8.2, SVG Export Plug-In . SVG Version: 2.1.1 Build 3)  -->
  <defs>
    <style>
      .st0 {
        fill: #efefef;
      }
    </style>
  </defs>
  <path class="st0" d="M32,93.8c-.5-.9-4.1-7.4-8-14.4C8.1,50.7,0,36,0,35.8v-.2q19.3.2,25.8,11.4c3.6,6.2,7.6,13.1,8.9,15.5s2.7,4.4,3,4.4c.3,0,3.7-3.3,8.1-7.9q7.6-8,16-7.9t13.8,8.8c4.5,7.1,5.6,8.7,6.2,8.7s1.8-2.2,9.1-16.9l8.3-16.9-29.3-.3c12.8-12.4,16.7-16.1,17-16.3.3-.2,34.5-.4,40.6-.3h.5c-22.6,44.4-31.7,62.2-34.3,67.4q-2.8,5.5-10.7,5.5c-7.1,0-7.9,0-8.4-.6-.3-.3-3.6-5.6-7.3-11.7l-6.7-11.1-27.6,28-.9-1.5Z"/>
  <path class="st0" d="M52,101.2q9.2-9.1,23.6-9.1h14.4c0,.4-2,4.4-4.5,9.2q-4.5,8.7-23.5,8.8h-19.1c0,0,9.2-9,9.2-9Z"/>
</svg>